HIERARCHY
ROOT root
{
	OFFSET	0	13.1	24.9
	CHANNELS 6  Xposition Yposition Zposition Xrotation Yrotation Zrotation
	JOINT spine_1
	{
		OFFSET	0	9.99999	0
		CHANNELS 3  Xrotation Yrotation Zrotation
		JOINT spine_2
		{
			OFFSET	0	112	-10
			CHANNELS 3  Xrotation Yrotation Zrotation
			JOINT spine_3
			{
				OFFSET	0	206.5	19.3
				CHANNELS 3  Xrotation Yrotation Zrotation
				JOINT spine_4
				{
					OFFSET	0	110.4	14.6
					CHANNELS 3  Xrotation Yrotation Zrotation
					JOINT neck_1
					{
						OFFSET	0	71.8	-50.3
						CHANNELS 3  Xrotation Yrotation Zrotation
						JOINT neck_2
						{
							OFFSET	0	86.2	-25.8
							CHANNELS 3  Xrotation Yrotation Zrotation
							JOINT head_ee
							{
								OFFSET	0	179.8	-8.7
								CHANNELS 3  Xrotation Yrotation Zrotation
								End Site
								{
									OFFSET	1	0	0
								}
							}
						}
					}
					JOINT left_clavicle
					{
						OFFSET	-43.2	22.4	-70.8
						CHANNELS 3  Xrotation Yrotation Zrotation
						JOINT left_shoulder
						{
							OFFSET	-93.9	-5.79999	48.7
							CHANNELS 3  Xrotation Yrotation Zrotation
							JOINT left_elbow
							{
								OFFSET	-291.4	-30.8	15.2
								CHANNELS 3  Xrotation Yrotation Zrotation
								JOINT left_lowarm_twist
								{
									OFFSET	-110.7	-3.89999	13.6
									CHANNELS 3  Xrotation Yrotation Zrotation
									JOINT left_hand
									{
										OFFSET	-110.7	-3.89999	13.6
										CHANNELS 3  Xrotation Yrotation Zrotation
										JOINT left_ee
										{
											OFFSET	-80.8	-5.10001	12.1
											CHANNELS 3  Xrotation Yrotation Zrotation
											End Site
											{
												OFFSET	1	0	0
											}
										}
									}
								}
							}
						}
					}
					JOINT right_clavicle
					{
						OFFSET	43.2	22.4	-70.8
						CHANNELS 3  Xrotation Yrotation Zrotation
						JOINT right_shoulder
						{
							OFFSET	93.9	-5.79999	48.7
							CHANNELS 3  Xrotation Yrotation Zrotation
							JOINT right_elbow
							{
								OFFSET	291.4	-30.8	15.2
								CHANNELS 3  Xrotation Yrotation Zrotation
								JOINT right_lowarm_twist
								{
									OFFSET	110.7	-3.89999	13.6
									CHANNELS 3  Xrotation Yrotation Zrotation
									JOINT right_hand
									{
										OFFSET	110.7	-3.89999	13.6
										CHANNELS 3  Xrotation Yrotation Zrotation
										JOINT right_ee
										{
											OFFSET	80.8	-5.10001	12.1
											CHANNELS 3  Xrotation Yrotation Zrotation
											End Site
											{
												OFFSET	1	0	0
											}
										}
									}
								}
							}
						}
					}
				}
			}
		}
	}
	JOINT left_hip
	{
		OFFSET	-82.8	-127.5	0.300001
		CHANNELS 3  Xrotation Yrotation Zrotation
		JOINT left_knee
		{
			OFFSET	-28.2	-396.7	2.2
			CHANNELS 3  Xrotation Yrotation Zrotation
			JOINT left_ankle
			{
				OFFSET	-11.7	-411.3	35.4
				CHANNELS 3  Xrotation Yrotation Zrotation
				JOINT left_toes
				{
					OFFSET	0	-60	-88.6
					CHANNELS 3  Xrotation Yrotation Zrotation
					JOINT left_foot_ee
					{
						OFFSET	-22.5	-16.5	-42.2
						CHANNELS 3  Xrotation Yrotation Zrotation
						End Site
						{
							OFFSET	1	0	0
						}
					}
				}
			}
		}
	}
	JOINT right_hip
	{
		OFFSET	82.8	-127.5	0.300001
		CHANNELS 3  Xrotation Yrotation Zrotation
		JOINT right_knee
		{
			OFFSET	28.2	-396.7	2.2
			CHANNELS 3  Xrotation Yrotation Zrotation
			JOINT right_ankle
			{
				OFFSET	11.7	-411.3	35.4
				CHANNELS 3  Xrotation Yrotation Zrotation
				JOINT right_toes
				{
					OFFSET	0	-60	-88.6
					CHANNELS 3  Xrotation Yrotation Zrotation
					JOINT right_foot_ee
					{
						OFFSET	22.5	-16.5	-42.2
						CHANNELS 3  Xrotation Yrotation Zrotation
						End Site
						{
							OFFSET	1	0	0
						}
					}
				}
			}
		}
	}
}
MOTION
Frames: 14
Frame Time: 0.02
1372.05 701.618 -1475.22 -0.802568631052 -1.57653882828 2.46478537275 0.287185 -0.115241 -0.845928 0.287581 -0.0611807 -0.851546 0.288664 0.114906 -0.845973 0.287666 -0.0201366 -0.853503 -3.24497 14.2661 3.35238 -3.02036 23.4279 5.56036 -0.0 0.0 -0.0 8.19668 0.838788 15.9635 -23.0499 -42.6855 37.4894 1.41617 -35.0487 0.447199 -21.701 -1.24681 2.46225 -2.27003 -13.233 -21.3707 -0.0 0.0 -0.0 12.1739 15.3835 -24.5823 -23.2425 -17.7418 -60.4758 0.197558 5.58956 -0.00964415 48.0895 0.83546 5.90829 0.0695305 14.6849 5.78252 0.0 0.0 0.0 -10.9561 45.7904 -4.29725 -12.8476 0.31228 1.9428 35.2251 -27.1568 -5.24522 -32.1416 0.0 0.0 -0.0 0.0 -0.0 25.7152 -7.7152 -9.38494 3.71499 0.170714 0.544348 -13.0203 -11.5236 -1.95042 -29.8505 0.0 0.0 0.0 0.0 0.0 
1361.70275778 700.582 -1500.36384154 -1.41749265756 -1.5538329632 3.19104384784 0.149848 0.100268 -1.17114 0.150594 0.174582 -1.16239 0.147254 0.412222 -1.10078 0.145639 0.233214 -1.15206 -0.447845 13.5535 -0.0596255 -0.0255936 24.3191 1.37321 -0.0 0.0 -0.0 8.86869 1.74204 17.2779 -19.3454 -41.2392 42.6536 1.24656 -31.6944 0.353864 -23.7771 -1.41324 2.66973 -2.1022 -14.2379 -20.5939 -0.0 0.0 -0.0 11.5625 14.7179 -23.211 -20.0769 -17.7033 -59.1311 0.181703 5.14348 -0.00816134 48.332 0.852002 5.93455 0.32491 19.1095 5.95883 0.0 0.0 0.0 -9.99015 44.1317 -5.52858 -15.1786 0.321899 2.30028 33.2886 -27.1131 -5.02926 -32.3062 0.0 0.0 -0.0 0.0 -0.0 25.0563 -7.13415 -9.54718 3.10742 0.14038 0.45608 -9.65504 -12.4557 -1.44186 -28.6571 0.0 0.0 0.0 0.0 0.0 
1362.01219961 700.582 -1500.48896817 -1.41807163226 -2.25698999112 3.17363118007 0.149848 0.100268 -1.17114 0.150594 0.174582 -1.16239 0.147254 0.412222 -1.10078 0.145639 0.233214 -1.15206 -0.447845 13.5535 -0.0596255 -0.0255936 24.3191 1.37321 -0.0 0.0 -0.0 8.86869 1.74204 17.2779 -19.3454 -41.2392 42.6536 1.24656 -31.6944 0.353864 -23.7771 -1.41324 2.66973 -2.1022 -14.2379 -20.5939 -0.0 0.0 -0.0 11.5625 14.7179 -23.211 -20.0769 -17.7033 -59.1311 0.181703 5.14348 -0.00816134 48.332 0.852002 5.93455 0.32491 19.1095 5.95883 0.0 0.0 0.0 -9.99015 44.1317 -5.52858 -15.1786 0.321899 2.30028 33.2886 -27.1131 -5.02926 -32.3062 0.0 0.0 -0.0 0.0 -0.0 25.0563 -7.13415 -9.54718 3.10742 0.14038 0.45608 -9.65504 -12.4557 -1.44186 -28.6571 0.0 0.0 0.0 0.0 0.0 
1362.73374483 695.997 -1516.29806897 -2.07017005225 -1.80637162668 3.28254336233 0.143184 0.115013 -1.233 0.144009 0.193233 -1.22319 0.140103 0.443249 -1.15632 0.138328 0.255082 -1.2118 -0.396085 13.528 -0.060353 0.0273731 24.2654 1.36045 -0.0 0.0 -0.0 8.93231 1.58164 17.4117 -19.8657 -41.1463 42.5766 1.17289 -30.1562 0.316 -23.7617 -1.41197 2.66821 -2.04339 -14.0712 -20.1033 -0.0 0.0 -0.0 11.7405 17.1375 -23.5138 -18.2999 -16.6615 -59.8778 0.201244 5.69318 -0.0100066 48.3341 0.85215 5.93479 0.303084 19.0476 6.07795 0.0 0.0 0.0 -9.79736 44.6516 -5.47368 -15.1835 0.321904 2.30105 33.373 -27.1246 -5.03942 -32.31 0.0 0.0 -0.0 0.0 -0.0 25.2367 -6.94577 -9.6251 2.93366 0.131878 0.430779 -9.81219 -12.5348 -1.46577 -28.6861 0.0 0.0 0.0 0.0 0.0 
1347.08633962 696.304 -1594.1941822 -0.416937472736 -0.615799883887 2.44460564318 -0.357224 0.186887 -0.978667 -0.356725 0.24878 -0.964793 -0.360786 0.451648 -0.888112 -0.361757 0.305726 -0.948289 2.5765 12.668 -2.1123 3.22174 23.9645 -1.51508 -0.0 0.0 -0.0 7.32064 2.21382 14.2063 -24.555 -41.5269 47.7685 1.12473 -29.1239 0.292183 -23.1681 -1.36363 2.60949 -2.30254 -11.1927 -20.7205 -0.0 0.0 -0.0 12.3093 18.4585 -24.7458 -17.1954 -14.8988 -58.627 0.282946 7.97896 -0.0197334 51.9226 1.10986 6.31512 0.124566 14.4968 5.33101 0.0 0.0 0.0 -12.423 45.5667 -5.17375 -17.8936 0.314763 2.71674 33.5619 -27.6099 -5.08842 -31.9769 0.0 0.0 -0.0 0.0 -0.0 23.8996 -6.91193 -8.3924 -6.8874 -0.221692 -1.03313 -1.92142 -8.19595 -0.28242 -24.3874 0.0 0.0 0.0 0.0 0.0 
1351.84300339 694.747 -1621.03965911 0.138392603915 -0.566809124848 2.17573453372 -0.463309 0.108238 -0.517655 -0.463171 0.140958 -0.509718 -0.464389 0.248738 -0.466704 -0.464652 0.17191 -0.500129 2.49491 12.4242 -3.44525 3.22599 24.6631 -3.02062 -0.0 0.0 -0.0 5.82221 4.28619 11.3197 -24.5034 -42.6778 49.5892 1.09194 -28.4088 0.276399 -19.9527 -1.11259 2.283 -2.38322 -10.6862 -21.079 -0.0 0.0 -0.0 12.3252 19.3619 -24.7258 -16.4583 -13.7591 -61.0875 0.326068 9.17562 -0.0261651 54.7791 1.33179 6.60601 0.133947 14.1795 5.13216 0.0 0.0 0.0 -11.8108 47.2226 -6.35469 -18.3281 0.31179 2.78334 35.2024 -26.6579 -5.2141 -31.8635 0.0 0.0 -0.0 0.0 -0.0 23.035 -4.63398 -7.2253 -10.2253 -0.28409 -1.54146 1.6273 -0.349564 0.239518 -21.8047 0.0 0.0 0.0 0.0 0.0 
1356.01715883 694.747 -1621.55743096 0.13848827229 -2.20390457066 2.17969118128 -0.463309 0.108238 -0.517655 -0.463171 0.140958 -0.509718 -0.464389 0.248738 -0.466704 -0.464652 0.17191 -0.500129 2.49491 12.4242 -3.44525 3.22599 24.6631 -3.02062 -0.0 0.0 -0.0 5.82221 4.28619 11.3197 -24.5034 -42.6778 49.5892 1.09194 -28.4088 0.276399 -19.9527 -1.11259 2.283 -2.38322 -10.6862 -21.079 -0.0 0.0 -0.0 12.3252 19.3619 -24.7258 -16.4583 -13.7591 -61.0875 0.326068 9.17562 -0.0261651 54.7791 1.33179 6.60601 0.133947 14.1795 5.13216 0.0 0.0 0.0 -11.8108 47.2226 -6.35469 -18.3281 0.31179 2.78334 35.2024 -26.6579 -5.2141 -31.8635 0.0 0.0 -0.0 0.0 -0.0 23.035 -4.63398 -7.2253 -10.2253 -0.28409 -1.54146 1.6273 -0.349564 0.239518 -21.8047 0.0 0.0 0.0 0.0 0.0 
1360.39216973 694.747 -1621.97077747 0.138709406134 -3.91431326999 2.18383442885 -0.463309 0.108238 -0.517655 -0.463171 0.140958 -0.509718 -0.464389 0.248738 -0.466704 -0.464652 0.17191 -0.500129 2.49491 12.4242 -3.44525 3.22599 24.6631 -3.02062 -0.0 0.0 -0.0 5.82221 4.28619 11.3197 -24.5034 -42.6778 49.5892 1.09194 -28.4088 0.276399 -19.9527 -1.11259 2.283 -2.38322 -10.6862 -21.079 -0.0 0.0 -0.0 12.3252 19.3619 -24.7258 -16.4583 -13.7591 -61.0875 0.326068 9.17562 -0.0261651 54.7791 1.33179 6.60601 0.133947 14.1795 5.13216 0.0 0.0 0.0 -11.8108 47.2226 -6.35469 -18.3281 0.31179 2.78334 35.2024 -26.6579 -5.2141 -31.8635 0.0 0.0 -0.0 0.0 -0.0 23.035 -4.63398 -7.2253 -10.2253 -0.28409 -1.54146 1.6273 -0.349564 0.239518 -21.8047 0.0 0.0 0.0 0.0 0.0 
1361.34665779 700.786 -1648.07191778 1.54236865443 -4.8010220526 2.33548923889 -1.03653 0.124616 -0.546481 -1.03638 0.159137 -0.537444 -1.03782 0.277417 -0.487044 -1.0381 0.197017 -0.524743 2.96095 12.4761 -3.85659 3.7658 25.0391 -3.58263 -0.0 0.0 -0.0 6.07815 6.02317 11.7964 -23.0544 -40.2659 52.4533 0.995088 -26.2399 0.231935 -22.5835 -1.31663 2.55118 -2.2713 -13.0234 -21.2899 -0.0 0.0 -0.0 12.5687 19.5104 -25.2781 -13.4534 -14.1843 -59.7393 0.351163 9.8684 -0.0303166 53.7902 1.25331 6.50654 0.41215 12.4004 2.49428 0.0 0.0 0.0 -9.24318 46.3411 -7.54839 -18.4721 0.310692 2.80542 37.4767 -28.2579 -5.54831 -32.283 0.0 0.0 -0.0 0.0 -0.0 18.6207 -5.58444 -6.54418 -10.2801 -0.284867 -1.54983 5.26089 3.51527 0.775255 -22.2804 0.0 0.0 0.0 0.0 0.0 
1352.48510035 710.205 -1674.28935625 3.43114487957 -5.52745204789 1.07121836439 -1.46747 0.159781 -0.368799 -1.46742 0.182924 -0.357884 -1.46856 0.261959 -0.304828 -1.46863 0.21053 -0.342374 2.39725 12.7029 -3.67604 3.17217 25.3575 -3.25047 -0.0 0.0 -0.0 6.91618 8.03528 13.3018 -26.2678 -39.6539 52.1163 0.950723 -25.2182 0.212675 -22.568 -1.31539 2.54962 -2.36315 -12.5869 -21.7645 -0.0 0.0 -0.0 12.9717 21.6434 -26.0516 -13.1563 -12.1759 -58.1794 0.41188 11.5322 -0.0415911 54.8318 1.33602 6.61127 0.471349 11.9083 1.88403 0.0 0.0 0.0 -5.55329 46.0442 -8.01278 -21.4039 0.276313 3.25391 37.569 -30.312 -5.69507 -31.3518 0.0 0.0 -0.0 0.0 -0.0 14.5887 -6.22476 -4.92629 -9.53709 -0.273651 -1.43638 6.22878 3.68116 0.915604 -21.5887 0.0 0.0 0.0 0.0 0.0 
1332.00115905 710.616 -1725.31773525 4.33333566817 -0.321984209199 -0.00463254404552 -1.08312 0.349635 -0.00619254 -1.08318 0.349321 0.0160685 -1.08313 0.336396 0.0955037 -1.08298 0.347257 0.0411771 0.0855819 12.7499 -4.14474 0.743726 26.0985 -3.26374 -0.0 0.0 -0.0 4.78936 11.3855 9.48142 -24.7084 -40.6784 58.9847 0.692567 -18.936 0.1155 -25.0996 -1.52315 2.79873 -1.84684 -12.6612 -18.1069 -0.0 0.0 -0.0 13.2389 26.6378 -26.1524 -4.53177 -13.3935 -59.5801 0.303541 8.55144 -0.0226941 55.7431 1.40993 6.70165 0.429662 11.0501 1.79748 0.0 0.0 0.0 -1.52449 36.3676 -9.56547 -34.9351 -0.176368 5.27637 37.9259 -22.3921 -5.26889 -29.5313 0.0 0.0 -0.0 0.0 -0.0 10.7982 -4.93068 -4.30111 -10.5877 -0.28908 -1.59685 13.6349 5.27193 1.96192 -19.5251 0.0 0.0 0.0 0.0 0.0 
1342.47966316 710.616 -1726.77194695 4.33812219945 -2.70838801067 0.176348725989 -1.08312 0.349635 -0.00619254 -1.08318 0.349321 0.0160685 -1.08313 0.336396 0.0955037 -1.08298 0.347257 0.0411771 0.0855819 12.7499 -4.14474 0.743726 26.0985 -3.26374 -0.0 0.0 -0.0 4.78936 11.3855 9.48142 -24.7084 -40.6784 58.9847 0.692567 -18.936 0.1155 -25.0996 -1.52315 2.79873 -1.84684 -12.6612 -18.1069 -0.0 0.0 -0.0 13.2389 26.6378 -26.1524 -4.53177 -13.3935 -59.5801 0.303541 8.55144 -0.0226941 55.7431 1.40993 6.70165 0.429662 11.0501 1.79748 0.0 0.0 0.0 -1.52449 36.3676 -9.56547 -34.9351 -0.176368 5.27637 37.9259 -22.3921 -5.26889 -29.5313 0.0 0.0 -0.0 0.0 -0.0 10.7982 -4.93068 -4.30111 -10.5877 -0.28908 -1.59685 13.6349 5.27193 1.96192 -19.5251 0.0 0.0 0.0 0.0 0.0 
1294.75331859 710.827 -1767.54277893 3.31158588115 6.93395761048 0.829944030024 -0.0859422 0.0459045 -0.542114 -0.0857822 0.0803071 -0.538095 -0.0864848 0.192383 -0.508905 -0.0868296 0.109597 -0.532901 -1.41051 13.0029 -3.73833 -0.878018 26.3866 -2.45043 -0.0 0.0 -0.0 3.38008 15.1398 7.19479 -24.0323 -39.7493 64.9832 0.543007 -15.0558 0.0717577 -27.1559 -1.69991 2.99422 -1.57253 -12.7387 -16.2103 -0.0 0.0 -0.0 12.1801 27.6493 -23.5954 4.13871 -17.7251 -60.7361 0.207557 5.87054 -0.0106425 56.1856 1.44635 6.74512 0.406003 13.0572 2.81749 0.0 0.0 0.0 3.34246 16.1602 -7.95194 -50.7304 -1.28638 7.42886 37.4357 -13.0852 -4.8752 -26.0612 0.0 0.0 -0.0 0.0 -0.0 8.39054 -3.59032 -4.74132 -11.1327 -0.295923 -1.68019 20.2399 7.88117 2.85716 -17.833 0.0 0.0 0.0 0.0 0.0 
1285.22880351 709.553 -1781.87099112 2.8192181175 7.8523690918 1.02519732813 0.23906 0.0541068 -0.682075 0.239314 0.0973984 -0.67725 0.238228 0.234907 -0.642631 0.237675 0.130469 -0.671663 -2.04169 13.3254 -2.962 -1.58689 26.4293 -1.43412 -0.0 0.0 -0.0 2.89671 15.2328 6.42074 -25.5595 -41.3033 66.1406 0.516424 -14.3499 0.0650106 -26.7175 -1.66163 2.95307 -1.2109 -12.4327 -13.5628 -0.0 0.0 -0.0 11.6108 27.1324 -22.364 5.83936 -13.7339 -61.7705 0.199789 5.65228 -0.00986267 56.6658 1.48625 6.79198 0.399018 12.6637 2.69575 0.0 0.0 0.0 6.03701 11.8173 -7.57144 -54.7508 -1.66061 7.9223 32.5389 -9.0681 -4.29736 -25.8489 0.0 0.0 -0.0 0.0 -0.0 7.43992 -3.1986 -4.84728 -10.1791 -0.283428 -1.5344 21.7165 10.0941 3.07604 -16.9463 0.0 0.0 0.0 0.0 0.0 
